#!OML:ASF H:\Terrain\Patient Classification 1\Animal2\Wednesday\Animal2.ASF
:FULLY-SPECIFIED
:DEGREES
1582
root 13.3068 18.4185 8.8365 15.0311 -4.30376 1.35241
lowerback 10.5527 -2.98362 2.36996
upperback -3.00126 -3.68883 -0.288726
thorax -9.31239 -1.92765 -0.956322
lowerneck 6.01471 5.29563 14.6608
upperneck -40.4658 3.05184 -21.9424
head -13.8013 1.84626 -12.7404
rclavicle -8.29926e-015 2.39536e-014
rhumerus -25.8035 20.7229 -45.5662
rradius 137.807
rwrist 5.81308
rhand -21.2632 27.9428
rfingers 7.12502
rthumb 5.12026 -1.97535
lclavicle -8.29926e-015 2.39536e-014
lhumerus -18.7333 -18.2444 28.8467
lradius 138.11
lwrist 39.4529
lhand -4.01856 6.17764
lfingers 7.12502
lthumb 21.7361 34.9773
rfemur -23.2791 -4.64873 22.3103
rtibia 24.8693
rfoot -11.4068 2.86818
rtoes 33.2857
lfemur -21.4539 -1.88149 -21.1353
ltibia 25.5985
lfoot -10.9292 0.471688
ltoes -20.4913
1583
root 13.3124 18.4239 8.83163 15.1758 -4.72319 1.30939
lowerback 10.4946 -2.78654 2.30844
upperback -2.86031 -3.4356 -0.298289
thorax -9.11007 -1.80017 -0.987295
lowerneck 5.81008 5.31421 14.3918
upperneck -40.7279 3.04005 -21.7419
head -13.9037 1.84043 -12.6232
rclavicle -7.70291e-015 -1.0635e-014
rhumerus -26.6908 26.103 -48.5846
rradius 136.23
rwrist 7.96648
rhand -21.0865 28.6185
rfingers 7.12502
rthumb 5.29088 -1.29542
lclavicle -7.70291e-015 -1.0635e-014
lhumerus -19.4992 -21.0651 31.497
lradius 137.362
lwrist 37.4934
lhand -3.4065 6.02959
lfingers 7.12502
lthumb 22.3238 34.76
rfemur -23.3786 -4.93779 22.365
rtibia 24.6017
rfoot -11.0848 3.53745
rtoes 33.3223
lfemur -21.5301 -2.36898 -21.07
ltibia 25.0201
lfoot -10.76 1.53171
ltoes -22.0155
1584
root 13.3232 18.4362 8.82967 15.259 -5.1789 1.35313
lowerback 10.5097 -2.64069 2.17933
upperback -2.67881 -3.26111 -0.337843
thorax -8.90807 -1.70739 -0.994283
lowerneck 5.37054 5.3637 14.199
upperneck -41.0193 3.0535 -21.5386
head -13.9551 1.82587 -12.5041
rclavicle 1.27471e-014 2.51463e-014
rhumerus -27.5506 30.9324 -51.3984
rradius 134.065
rwrist 10.1897
rhand -20.5529 30.9553
rfingers 7.12502
rthumb 5.80601 1.05488
lclavicle 1.27471e-014 2.51463e-014
lhumerus -20.631 -24.7313 34.5788
lradius 136.33
lwrist 35.1054
lhand -2.76946 5.97009
lfingers 7.12502
lthumb 22.9352 34.6259
rfemur -23.451 -5.5262 22.326
rtibia 24.348
rfoot -10.5445 4.6047
rtoes 33.6671
lfemur -21.4728 -3.16289 -21.0261
ltibia 24.2266
lfoot -10.625 2.26021
ltoes -21.1714
1585
root 13.3301 18.4474 8.83877 15.3053 -5.67498 1.2371
lowerback 10.5559 -2.57657 2.12899
upperback -2.51983 -3.1823 -0.353369
thorax -8.75672 -1.6648 -0.999552
lowerneck 4.92358 5.51737 14.4551
upperneck -41.3045 3.20394 -21.6716
head -13.9275 1.84519 -12.6358
rclavicle 3.28492e-014 7.95139e-015
rhumerus -28.2578 35.4628 -54.0766
rradius 131.939
rwrist 11.7377
rhand -19.1932 31.9107
rfingers 7.12502
rthumb 7.11867 2.05045
lclavicle 3.28492e-014 7.95139e-015
lhumerus -22.447 -28.8922 38.024
lradius 135.059
lwrist 32.6511
lhand -1.94414 5.74027
lfingers 7.12502
lthumb 23.727 34.2956
rfemur -23.5072 -6.2092 22.487
rtibia 24.1639
rfoot -9.93521 5.76407
rtoes 34.2416
lfemur -21.2792 -3.85146 -20.8133
ltibia 23.3012
lfoot -10.501 2.6318
ltoes -21.4748
1586
root 13.331 18.4493 8.85293 15.3675 -6.23583 1.04726
lowerback 10.8387 -2.40264 1.95348
upperback -2.58894 -2.96102 -0.274372
thorax -8.97298 -1.54652 -0.844609
lowerneck 4.52709 5.61686 14.6718
upperneck -41.4157 3.30458 -21.7485
head -13.8457 1.85078 -12.7014
rclavicle -5.29761e-014 7.55382e-015
rhumerus -29.6207 39.6409 -56.8077
rradius 130.536
rwrist 12.3724
rhand -17.1714 31.1372
rfingers 7.12502
rthumb 9.06993 1.35222
lclavicle -5.29761e-014 7.55382e-015
lhumerus -24.9038 -33.5455 42.0757
lradius 133.605
lwrist 30.2097
lhand -1.53924 5.55598
lfingers 7.12502
lthumb 24.1153 34.0604
rfemur -23.4879 -6.74262 22.7523
rtibia 23.903
rfoot -9.35733 6.71664
rtoes 34.6436
lfemur -21.0764 -4.199 -20.5777
ltibia 22.4557
lfoot -10.4461 2.81921
ltoes -24.8398
